<?xml version="1.0" encoding="UTF-8"?>
<svg width="60px" height="63px" viewBox="0 0 60 63" version="1.1" xmlns="http://www.w3.org/2000/svg" xmlns:xlink="http://www.w3.org/1999/xlink">
    <title>Leaf 01</title>
    <g id="Design" stroke="none" stroke-width="1" fill="none" fill-rule="evenodd">
        <g id="PC_MAN_100_03_LOiViE_IS_03_CLEAN" transform="translate(-1155.000000, -627.000000)" fill="#B9C38C">
            <g id="++-LOiViE-IS_03" transform="translate(194.000000, 220.000000)">
                <g id="++++-CLEAN-TEXT" transform="translate(0.000000, 36.000000)">
                    <path d="M997.619965,438.37364 C996.56951,438.561109 993.970427,438.852276 992.773333,438.897653 C991.576239,438.94303 991.438557,438.650699 991.490965,437.090149 C991.543373,435.529599 991.993135,425.09791 991.942207,423.96902 C991.89128,422.84013 992.072191,422.648152 990.608023,422.839548 C989.143856,423.030945 981.372664,424.069081 979.133627,423.96902 C976.894591,423.868959 974.898644,423.794494 974.053602,422.28892 C973.20856,420.783345 972.264031,419.110808 974.619135,418.807424 C976.974239,418.50404 985.629261,415.928914 986.377778,415.755261 C987.126295,415.581608 988.358031,414.719743 987.034211,414.351203 C985.71039,413.982663 970.82888,406.009168 969.645702,404.723495 C968.462525,403.437823 966.66111,400.830119 968.710056,400.401659 C970.759003,399.973198 978.534636,402.184147 981.173099,402.951478 C983.811561,403.718809 985.072315,403.990778 983.846796,402.228069 C982.621277,400.46536 973.211224,389.254124 971.811901,386.644384 C970.412577,384.034643 969.293059,381.122101 971.33934,380.626448 C973.385622,380.130796 976.286717,380.40451 980.711197,385.287738 C985.135678,390.170965 987.274636,392.621887 987.81737,393.454665 C988.360104,394.287443 989.392276,394.472731 988.88833,391.033704 C988.384383,387.594676 987.721437,374.499435 987.81737,373.234124 C987.913303,371.968813 988.183634,367.809867 990.608023,369.172912 C993.032412,370.535957 993.349229,373.308879 993.909137,376.289486 C994.469044,379.270093 995.310237,385.687401 995.518981,386.644384 C995.727725,387.601366 996.055793,389.757049 996.477426,386.644384 C996.899059,383.531719 998.60454,375.338903 998.842597,373.234124 C999.080654,371.129345 1000.47406,369.419284 1002.16829,370.564172 C1003.86252,371.709061 1003.8868,374.387738 1003.73608,377.590575 C1003.58537,380.793411 1002.90999,392.635267 1002.5837,394.815674 C1002.25741,396.996081 1002.36282,399.086899 1003.73608,396.048698 C1005.10935,393.010497 1008.63727,386.064377 1010.55712,383.386281 C1012.47697,380.708185 1013.32557,379.789307 1014.78648,381.15148 C1016.24739,382.513652 1014.56175,388.043788 1013.87304,390.515944 C1013.18433,392.9881 1008.64615,399.989196 1008.35865,401.132921 C1008.07115,402.276646 1009.63421,401.674823 1010.55712,401.132921 C1011.48004,400.591019 1015.72094,398.66251 1017.22923,398.348073 C1018.73751,398.033636 1019.78774,399.857139 1017.22923,402.228069 C1014.67071,404.599 1005.5677,411.094554 1004.71496,411.989289 C1003.86222,412.884024 1003.93269,413.313357 1006.84,413.535004 C1009.74731,413.756652 1014.04418,414.029203 1016.16004,414.351203 C1018.27591,414.673202 1018.65224,417.859459 1014.78648,418.807424 C1010.92072,419.755389 1009.18533,420.041902 1006.18298,420.712662 C1003.18062,421.383423 1001.01797,421.486684 1000.2967,421.849406 C999.575421,422.212129 999.839238,422.077162 999.629309,423.96902 C999.419381,425.860878 998.730675,435.55556 998.601875,436.635001 C998.473076,437.714442 998.67042,438.18617 997.619965,438.37364 Z" id="Leaf-01" transform="translate(993.278914, 403.901977) rotate(-34.000000) translate(-993.278914, -403.901977) "></path>
                </g>
            </g>
        </g>
    </g>
</svg>