<?xml version="1.0" encoding="UTF-8"?>
<svg width="128px" height="108px" viewBox="0 0 128 108" version="1.1" xmlns="http://www.w3.org/2000/svg" xmlns:xlink="http://www.w3.org/1999/xlink">
    <title>DOTS</title>
    <defs>
        <filter id="filter-1">
            <feColorMatrix in="SourceGraphic" type="matrix" values="0 0 0 0 0.949417 0 0 0 0 0.690758 0 0 0 0 0.586565 0 0 0 1.000000 0"></feColorMatrix>
        </filter>
        <polygon id="path-2" points="0.218421053 0.220923077 9.56718478 0.220923077 9.56718478 15.8881602 0.218421053 15.8881602"></polygon>
        <polygon id="path-4" points="0.108433536 0.190001572 8.9775 0.190001572 8.9775 13.7174609 0.108433536 13.7174609"></polygon>
        <polygon id="path-6" points="0.0898057276 0.200847376 11.79788 0.200847376 11.79788 16 0.0898057276 16"></polygon>
        <polygon id="path-8" points="0 0.15759982 11.6005924 0.15759982 11.6005924 16.7324665 0 16.7324665"></polygon>
    </defs>
    <g id="Design" stroke="none" stroke-width="1" fill="none" fill-rule="evenodd">
        <g id="PC_MAN_100_03_LOiViE_IS_01_DAILY" transform="translate(-1126.000000, -558.000000)">
            <g id="DOTS" transform="translate(336.000000, 202.000000)" filter="url(#filter-1)">
                <g transform="translate(854.000000, 410.000000) scale(-1, 1) translate(-854.000000, -410.000000) translate(790.000000, 356.000000)">
                    <path d="M10.5077977,10.2277245 C12.3858046,9.37795168 11.9998582,11.0312163 13.7405955,13.1202948 C15.4813328,15.2093733 15.7300095,15.3700716 15.9786863,18.1019435 C16.2273631,20.8338154 14.237949,21.6373071 13.243242,21.9587038 C12.248535,22.2801005 11.0882093,20.673117 10.5077977,18.9591084 C9.92738618,17.2447785 10.0935023,16.8163567 9.67870943,15.6914683 C9.26441395,14.5665799 8.02103019,11.352613 10.5077977,10.2277245" id="Fill-1" fill="#1A1919"></path>
                    <g id="Group-5" transform="translate(28.000000, 0.000000)">
                        <mask id="mask-3" fill="white">
                            <use xlink:href="#path-2"></use>
                        </mask>
                        <g id="Clip-4"></g>
                        <path d="M2.76210526,0.263815385 C1.45789474,0.492738462 0.218421053,3.08443077 0.218421053,4.82781538 C0.218421053,6.57150769 0.393684211,8.52012308 1.49,10.3662769 C2.58684211,12.2124308 3.02526316,13.9561231 4.60421053,14.7767385 C6.18315789,15.5970462 7.41105263,16.1613538 8.63947368,15.7508923 C9.86736842,15.3407385 9.69210526,14.1613538 9.16578947,12.3152 C8.63947368,10.4690462 8.28842105,8.52012308 7.93736842,7.49458462 C7.58684211,6.46904615 6.44631579,4.82781538 5.56894737,3.08443077 C4.69210526,1.34073846 4.51631579,-0.0438769231 2.76210526,0.263815385" id="Fill-3" fill="#1A1919" mask="url(#mask-3)"></path>
                    </g>
                    <path d="M62.9246703,13.1547029 C64.2413116,12.7465652 65.6419414,13.1547029 66.3830153,14.2759602 C67.1240893,15.3972176 67.2065955,15.8242564 67.5356323,17.4795526 C67.8651632,19.1348488 68.1121878,19.2703608 67.9476694,21.5250491 C67.782657,23.7800578 66.600397,25.328354 65.4626015,26.3429317 C64.3243119,27.3571891 63.0071765,27.2505095 61.6070408,25.6487133 C60.2073992,24.0469171 58.8077576,22.8189801 58.231202,20.7898247 C57.6546465,18.7609896 58.231202,17.0800647 59.1367944,15.5445828 C60.0428808,14.009101 61.0309794,13.7419214 62.9246703,13.1547029" id="Fill-6" fill="#1A1919"></path>
                    <path d="M95.0494747,11.6002258 C94.4742794,12.6513397 93.8044633,13.7828565 94.0534656,16.0675371 C94.3024678,18.3519084 95.7964816,20.6712241 97.7053331,22.7329411 C99.6146827,24.7946582 101.191863,25.1552344 102.60271,24.9492792 C104.013557,24.7430147 104.262559,22.3720556 103.764555,20.8774886 C103.26655,19.3829216 102.60271,17.9396887 101.855703,16.3418348 C101.108696,14.7442902 100.36169,13.8678981 99.7805182,12.2703535 C99.1993468,10.6724996 99.0335113,10.3116141 97.6226644,10.0540154 C96.2113194,9.79641673 95.6600283,10.4844804 95.0494747,11.6002258" id="Fill-8" fill="#1A1919"></path>
                    <path d="M117.385563,33.1189828 C115.575677,33.4249368 113.069056,35.3172834 112.476425,38.6953248 C111.884302,42.0733661 111.799495,44.4862528 112.476425,46.8991395 C113.153863,49.3120262 115.439072,52.2074902 118.486018,53.8698082 C121.532964,55.5321263 125.341646,55.4249941 126.272488,53.1192396 C127.20333,50.8134851 127.119031,49.0977618 126.695506,47.2745846 C126.272488,45.4514075 126.103383,43.5748251 125.595558,41.6982427 C125.087734,39.8213385 124.833822,38.2130691 123.64856,36.389892 C122.463806,34.5667148 121.194245,32.4755463 117.385563,33.1189828" id="Fill-10" fill="#1A1919"></path>
                    <path d="M93.7934857,51.3407161 C94.7570466,50.6895968 96.8339596,50.7457501 98.8345368,53.5586119 C100.835114,56.3717982 100.91481,58.1570208 100.994987,59.6176575 C101.075164,61.0782943 100.19466,62.0520521 98.2742599,61.9978462 C96.3538596,61.943965 94.6735092,59.7257447 93.7934857,58.4816068 C92.9134623,57.2374689 91.7929086,54.7488685 92.0329587,53.5586119 C92.2730087,52.3686798 92.4333622,52.2602681 93.7934857,51.3407161" id="Fill-12" fill="#1A1919"></path>
                    <g id="Group-16" transform="translate(119.000000, 67.000000)">
                        <mask id="mask-5" fill="white">
                            <use xlink:href="#path-4"></use>
                        </mask>
                        <g id="Clip-15"></g>
                        <path d="M1.624,0.404331915 C3.236,0.0504595745 5.2075,-0.0922212766 6.2075,1.84394894 C7.2075,3.78011915 7.806,5.26948085 8.34,6.80858723 C8.874,8.34769362 9.0405,9.63837447 8.9575,11.1277362 C8.874,12.6170979 8.2075,14.4540766 6.4575,13.4115234 C4.7075,12.3689702 3.5405,10.2341191 2.2905,8.24820426 C1.0405,6.26258723 -1.5425,1.09926809 1.624,0.404331915" id="Fill-14" fill="#1A1919" mask="url(#mask-5)"></path>
                    </g>
                    <path d="M78.7978864,70.5210893 C77.5722202,70.9006028 76.9220441,70.9330266 77.0074725,71.9622524 C77.0929008,72.9914782 77.860221,75.1530684 78.7978864,77.2630893 C79.7355518,79.373419 80.4174437,80.557044 83.0606062,82.2554364 C85.7037687,83.9538287 86.3856606,84.108228 87.9203012,83.9538287 C89.4549417,83.7994294 89.0288232,80.917412 88.6027046,79.013051 C88.1760746,77.10869 87.6645277,76.0282037 86.8972075,74.4326413 C86.1298872,72.8370789 83.7430097,71.4474851 82.3787143,70.5210893 C81.0144188,69.5946935 80.1478585,70.102976 78.7978864,70.5210893" id="Fill-17" fill="#1A1919"></path>
                    <path d="M96.6888268,95.357689 C95.2276358,96.2210547 94.9289615,97.6970109 95.0129322,99.8282891 C95.0964001,101.959879 96.6888268,104.714977 98.4486922,105.962615 C100.208557,107.210253 102.806622,108.457892 105.404183,107.834073 C108.002247,107.210253 106.7452,105.650705 106.326352,103.883114 C105.907001,102.115834 104.649955,99.9324669 102.806622,97.8008768 C100.962785,95.6695986 98.4486922,94.3180943 96.6888268,95.357689" id="Fill-19" fill="#1A1919"></path>
                    <g id="Group-23" transform="translate(55.000000, 92.000000)">
                        <mask id="mask-7" fill="white">
                            <use xlink:href="#path-6"></use>
                        </mask>
                        <g id="Clip-22"></g>
                        <path d="M1.4573,0.701088 C-0.0057,1.211808 -0.0427,2.994208 0.2073,4.647648 C0.4573,6.301088 2.4573,9.127648 3.2073,10.141088 C3.9573,11.154528 4.5408,12.541088 6.0408,13.821088 C7.5408,15.101088 9.6233,16.347168 10.9573,15.911328 C12.4573,15.421088 11.6238,11.581088 10.9573,9.927648 C10.2908,8.274528 8.7908,6.887648 8.4573,5.927648 C8.1238,4.967648 8.4573,4.594528 7.5408,3.261088 C6.6238,1.927648 7.0333,1.394528 5.9538,0.701088 C4.8738,0.007648 3.2908,0.061088 1.4573,0.701088" id="Fill-21" fill="#1A1919" mask="url(#mask-7)"></path>
                    </g>
                    <path d="M39.1602834,66.3130642 C38.2561928,67.5159816 37.6425039,68.4774983 38.2329201,69.839778 C38.8228305,71.2017433 38.5698672,71.830391 39.1602834,73.1401786 C39.7506997,74.4499661 41.8583895,76.4405792 43.376169,77.8550366 C44.8939485,79.269494 48.0139973,80.9457832 49.7002504,80.9982753 C51.3870093,81.0507674 52.1458991,79.8981418 51.9769197,78.4836844 C51.8084461,77.0692269 51.3025196,75.4303423 49.7002504,73.6566127 C48.098487,71.8828831 47.3395973,70.7170559 46.6646913,69.3091993 C45.9902913,67.9013427 44.2195485,65.8582375 42.6172793,65.2295898 C41.0155159,64.600942 39.8746517,65.3628631 39.1602834,66.3130642" id="Fill-24" fill="#1A1919"></path>
                    <path d="M72.9675839,38.1322214 C71.1564064,38.4893579 70,40.7201674 70,43.3081134 C70,45.8960594 70.7631366,47.7289722 71.9500684,49.0769686 C73.1370002,50.424965 74.8184446,51.1473254 76.0974616,51.7027633 C77.3769873,52.2582012 78.9877143,52.0961311 79.496472,50.6944349 C80.0052298,49.2927386 80.0901923,46.4353227 79.920776,44.763833 C79.7508509,43.0923434 78.3945028,41.0436606 77.4614411,39.803711 C76.5288881,38.5634379 75.4264101,37.6469815 72.9675839,38.1322214" id="Fill-26" fill="#1A1919"></path>
                    <path d="M35.0682231,35.5574616 C33.1576314,36.3937586 31.2465414,38.274878 31.0805547,40.6790358 C30.914568,43.0831936 30.8313254,46.8984261 32.6591729,50.1385673 C34.486522,53.3787085 35.4001965,53.4389143 37.7265026,54.584707 C40.0528086,55.7304997 40.1355528,55.8872858 42.4618588,55.9920189 C44.7881649,56.0964384 46.0343113,55.1557219 46.4495273,54.3717915 C46.8652417,53.5878611 47.1139725,51.6540616 46.9479858,50.2953534 C46.7819991,48.9366452 46.6987565,47.2198376 45.785082,45.7786599 C44.8714075,44.3374822 44.6221782,43.0831936 44.1237196,41.2017606 C43.6252611,39.3203276 43.04356,36.8117503 39.8035794,35.5574616 C36.5635988,34.303173 35.0682231,35.5574616 35.0682231,35.5574616" id="Fill-28" fill="#1A1919"></path>
                    <g id="Group-32" transform="translate(0.000000, 33.000000)">
                        <mask id="mask-9" fill="white">
                            <use xlink:href="#path-8"></use>
                        </mask>
                        <g id="Clip-31"></g>
                        <path d="M3.54055,0.265014545 C1.67605,0.504250909 1.20705,1.81046909 0.70705,3.25299636 C0.20705,4.69521455 -0.29295,6.70430545 0.20705,8.71339636 C0.70705,10.7224873 2.29055,13.7620873 4.45705,15.5133964 C6.62405,17.2650145 9.62405,17.0075418 10.62405,15.5133964 C11.62405,14.01956 11.87405,12.7318873 11.29055,10.2075418 C10.70705,7.68319636 10.54055,5.98319636 9.79055,3.71663273 C9.04055,1.44976 7.95705,-0.301549091 3.54055,0.265014545" id="Fill-30" fill="#1A1919" mask="url(#mask-9)"></path>
                    </g>
                    <path d="M11.9269044,62.5990644 C10.8437742,63.636483 10.8484896,65.8982308 11.2412835,67.5207184 C11.6345488,69.1432061 11.5558014,69.3593214 12.5776312,70.8737514 C13.5989895,72.3881813 14.463796,73.3425285 16.0354429,73.8659431 C17.6070897,74.3890331 18.7859427,73.3074828 18.9434374,71.901435 C19.1004607,70.4950628 18.9429659,69.5757613 18.3144015,67.1962209 C17.6858371,64.816356 17.2930432,62.8155043 15.3281311,62.328758 C13.3632189,61.8420117 12.6917442,61.8666735 11.9269044,62.5990644" id="Fill-33" fill="#1A1919"></path>
                </g>
            </g>
        </g>
    </g>
</svg>