<?xml version="1.0" encoding="UTF-8"?>
<svg width="52px" height="52px" viewBox="0 0 52 52" version="1.1" xmlns="http://www.w3.org/2000/svg" xmlns:xlink="http://www.w3.org/1999/xlink">
    <title>Star</title>
    <g id="Design" stroke="none" stroke-width="1" fill="none" fill-rule="evenodd">
        <g id="PC_MAN_100_03_LOiViE_IS_02_AWAKENING" transform="translate(-335.000000, -398.000000)" fill="#C3CAE1">
            <g id="++++-AWAKENING-THUMB" transform="translate(288.000000, 146.000000)">
                <path d="M67.5062831,303.699006 C70.4899386,304.611698 74.6570142,303.833306 75.9689566,295.89225 C76.8435849,290.598212 77.6492686,286.624029 78.3860078,283.969702 C81.962525,288.902561 84.4294804,292.634638 85.7868741,295.165934 C87.8229645,298.962877 90.953108,304.307924 94.7023704,302.282005 C98.4516329,300.256085 93.2209074,291.675962 90.9858144,288.876675 C89.4957525,287.010484 87.7627724,284.687643 85.7868741,281.908152 C89.332681,282.333587 91.7039739,282.654415 92.9007529,282.870635 C94.6959213,283.194965 98.230519,282.553157 98.5511341,278.425945 C98.8717493,274.298734 94.1951904,273.2321 90.9858144,272.713629 C88.8462304,272.367981 86.8945932,272.086134 85.1309028,271.868087 C90.4259663,266.824377 93.8619841,263.596153 95.4389561,262.183415 C97.8044141,260.064308 99.9621171,256.994137 98.5511341,255.62647 C97.1401511,254.258803 92.9219429,256.043988 89.7227013,259.313324 C87.5898736,261.492882 85.0108257,264.144164 81.9855577,267.267171 C82.9033063,260.91731 83.4219574,257.037077 83.5415109,255.62647 C83.7208411,253.510561 82.433774,251.830897 81.096035,252.013619 C79.7582959,252.19634 77.7590578,254.14506 76.6705326,258.645936 C75.944849,261.64652 75.3891468,264.965495 75.0034259,268.602862 C71.7266409,265.010566 69.5683236,262.362938 68.5284741,260.659978 C66.9686999,258.105538 65.6024003,254.888734 63.8063106,255.62647 C62.0102209,256.364207 62.2368626,260.516999 63.8063106,263.583972 C64.8526092,265.62862 66.2781796,267.727628 68.0830218,269.880996 C63.0023159,269.337401 59.2493683,268.911356 56.8241788,268.602862 C53.1863946,268.140121 48.6521779,266.968879 47.295552,269.880996 C45.9389262,272.793112 49.4550977,274.986678 53.7083155,276.395915 C56.5437941,277.335405 61.033481,278.479848 67.1773761,279.829243 C63.5987092,282.325517 60.8871466,284.241652 59.0426882,285.577647 C56.2760006,287.58164 54.5867826,289.227957 55.4343859,291.055624 C56.2819891,292.883291 61.0944408,293.252844 64.7386742,291.055624 C67.1681631,289.59081 68.9986483,288.062958 70.2301298,286.472066 C68.1114288,292.376697 66.8077781,295.819618 66.3191778,296.80083 C65.5862774,298.272648 64.5226275,302.786315 67.5062831,303.699006 Z" id="Star"></path>
            </g>
        </g>
    </g>
</svg>