<?xml version="1.0" encoding="UTF-8"?>
<svg width="70px" height="89px" viewBox="0 0 70 89" version="1.1" xmlns="http://www.w3.org/2000/svg" xmlns:xlink="http://www.w3.org/1999/xlink">
    <title>DECO</title>
    <g id="Design" stroke="none" stroke-width="1" fill="none" fill-rule="evenodd">
        <g id="PC_MAN_100_03_LOiViE_IS_03_CLEAN" transform="translate(-194.000000, -421.000000)" fill="#E5D7C5">
            <g id="++-LOiViE-IS_03" transform="translate(194.000000, 220.000000)">
                <g id="+++-CLEAN-BEAUTY" transform="translate(0.000000, 36.000000)">
                    <g id="DECO" transform="translate(0.000000, 165.000000)">
                        <path d="M53.675891,88.5765416 C47.7662194,89.8644291 42.3329517,88.1017754 38.8662006,84.8179038 C35.3994495,81.5340321 32.9282228,76.5180311 34.4667137,68.1365877 C36.0052046,59.7551443 40.1048162,54.2060876 42.0922623,51.1524422 C44.0797084,48.0987969 45.0004355,44.8359646 45.5332804,44.0495738 C46.0661252,43.2631829 47.0410632,42.1448178 48.788163,44.0495738 C50.5352629,45.9543297 54.7348901,51.48045 58.0465569,54.1833236 C61.3582238,56.8861973 67.324851,59.5392317 69.0577119,64.2541278 C70.7905728,68.9690238 70.1717797,74.8460883 66.8824148,79.0367238 C63.5930499,83.2273593 59.5855625,87.2886542 53.675891,88.5765416 Z" id="Water-03"></path>
                        <path d="M34.2412607,26.9991729 C30.783871,26.9542112 27.9835941,25.2254596 26.4741184,22.8859683 C24.9646427,20.5464769 24.2321565,17.3469066 26.1654682,12.7510431 C28.09878,8.15517961 31.0950588,5.52035987 32.5943029,4.03485931 C34.093547,2.54935876 35.025433,0.802831957 35.4232395,0.423062098 C35.8210461,0.0432922394 36.5077524,-0.468045347 37.2363858,0.854019236 C37.9650193,2.17608382 39.5948122,5.89661565 41.0925055,7.8828696 C42.5901987,9.86912356 45.5732491,12.1783629 45.9330913,15.1077459 C46.2929335,18.0371289 45.1935389,21.3206514 42.8230508,23.2848617 C40.4525627,25.2490719 37.6986504,27.0441346 34.2412607,26.9991729 Z" id="Water-03-Copy-2"></path>
                        <path d="M18.0843971,54.8549334 C22.7566285,54.1805412 26.2199946,51.4905694 27.8200277,48.2574644 C29.4200608,45.0243594 29.8051064,40.8405135 26.3163546,35.3639932 C22.8276028,29.8874729 18.2715676,27.0849219 15.9601853,25.4709159 C13.648803,23.8569099 12.0560438,21.810929 11.4454743,21.4009002 C10.8349048,20.9908714 9.80826634,20.4657731 9.07247002,22.2706128 C8.3366737,24.0754524 6.83558929,29.0794683 5.18453558,31.8630079 C3.53348188,34.6465475 -0.0672725687,38.1044891 0.000956155902,41.8795284 C0.0691848805,45.6545677 2.1801315,49.6176134 5.76180098,51.6824309 C9.34347046,53.7472485 13.4121657,55.5293256 18.0843971,54.8549334 Z" id="Water-03-Copy"></path>
                    </g>
                </g>
            </g>
        </g>
    </g>
</svg>